<?xml version="1.0" encoding="utf-8"?>
<!-- Generator: Adobe Illustrator 19.0.0, SVG Export Plug-In . SVG Version: 6.00 Build 0)  -->
<svg version="1.1" id="OBJECTS" xmlns="http://www.w3.org/2000/svg" xmlns:xlink="http://www.w3.org/1999/xlink" x="0px" y="0px"
	 viewBox="0 0 500 286.7" style="enable-background:new 0 0 500 286.7;" xml:space="preserve">
<style type="text/css">
	.st0{fill:#EFEFEF;}
	.st1{fill:#E2DCD5;}
	.st2{fill:#AFE1F5;}
	.st3{opacity:0.32;fill:#AFE1F5;}
	.st4{fill:#FFEDCA;}
	.st5{fill:#FFD67B;}
	.st6{fill:#F3BE65;}
	.st7{fill:#894D16;}
	.st8{opacity:0.58;fill:#F3BE65;}
	.st9{opacity:0.58;}
	.st10{opacity:0.39;}
	.st11{opacity:0.15;}
</style>
<g id="XMLID_308_">
	<g id="XMLID_306_">
		<path id="XMLID_316_" class="st0" d="M446.1,160.2c0,3.7-0.2,7.5-0.6,11.2c-4.8,44.9-42.7,78-86.6,78c-4.1,0-8.3-0.3-12.5-0.9
			l-10.7-1.5c-33.4-4.8-67.3-6-101-3.6l-59.8,4.3c-61.5,4.4-117.7-34.9-134.6-94.2c-1.3-4.7-2-9.4-2-14.1c0-12.7,4.8-25.2,13.6-34.8
			l1.9-2.1c3.9,8.5,12.5,14.4,22.5,14.4c13.7,0,24.8-11.1,24.8-24.8c0-10.7-6.7-19.7-16.2-23.2l4.2-4.5c17.4-18.8,46.3-21.4,66.8-6
			l1.9,1.5c15.2,11.4,34.9,13.2,51.4,4.8c0.5-0.3,1-0.5,1.5-0.8c25.7-13,53.5-19.9,81.5-20.7c-0.4,1.8-0.6,3.7-0.6,5.6
			c0,13.7,11.1,24.7,24.8,24.7s24.8-11.1,24.8-24.7c0-0.3,0-0.5,0-0.8c17.3,4,34.1,10.4,50.1,19.2
			C425.4,86.1,446.1,121.8,446.1,160.2z"/>
		<circle id="XMLID_307_" class="st0" cx="187.2" cy="36.8" r="23.2"/>
		<circle id="XMLID_309_" class="st0" cx="415" cy="49.3" r="12.5"/>
		<circle id="XMLID_310_" class="st0" cx="459.5" cy="130.7" r="4.5"/>
	</g>
	<g id="XMLID_299_">
		<ellipse id="XMLID_247_" class="st1" cx="250.3" cy="251.6" rx="190" ry="7.2"/>
		<g id="XMLID_134_">
			<path id="XMLID_270_" class="st2" d="M406.7,194.3v-29.6H373l0.2,29.6H347l39-82.2h-34.8l-33.2,68.1l-8.4,17.3v24.6H373v30.4
				h33.6v-30.4h18v-27.8H406.7z"/>
			<path id="XMLID_283_" class="st3" d="M328.7,222.1c0.7-7.6-1.6-13.1-2.1-14.2c-0.1,4.8-1,9.6-2.7,14.2h-14.3v-24.6l8.4-17.3
				c2.4,3,4.9,7.1,5.9,10.8c0.2,0.7,0.5,1.3,0.7,2c0,0,0,0.1,0,0.1c0.4,1.2,0.7,2.5,1,3.7c0,0,0,0,0,0.1c0,0.1,0,0.2,0.1,0.4
				c0.1,0.4,0.2,0.7,0.2,1.1c0.1,0.4,0.1,0.7,0.2,1.1c0,0.1,0,0.1,0,0.2c0,0,0,0.1,0,0.1c0.1,0.4,0.1,0.9,0.2,1.3c0,0,0,0,0,0.1
				c0,0,0,0,0,0v0c0,0,7.1,7,7.2,21H328.7z"/>
		</g>
		<path id="XMLID_260_" class="st2" d="M143.1,112.1l-39,82.2h26.2l-0.2-29.6h33.6v29.6h18v27.8h-18v30.4h-33.6v-30.4H66.6v-24.6
			l41.6-85.4H143.1z"/>
		<path id="XMLID_100_" class="st2" d="M247,96.7c-39.2,0-60.6,27.8-60.6,78.3c0,16.3,2.2,30.2,6.6,41.6c9.1,24,27.5,36.9,54.1,36.9
			c15,0,27.4-4.2,37-12.2c1.7-1.4,3.2-2.9,4.7-4.5c1.5-1.6,2.9-3.3,4.2-5.1c0.6-0.9,1.2-1.8,1.8-2.7c8-12.7,12.4-30,12.7-51.6
			c0-0.8,0-1.5,0-2.3C307.4,124.5,285.8,96.7,247,96.7z M225.2,187.3c-0.2-3.8-0.3-7.9-0.3-12.3c0-35.5,6.4-50.1,22.1-50.1
			c13.9,0,20.4,11.7,21.6,39.8c0.1,3.2,0.2,6.6,0.2,10.2c0,35.3-6.4,50-21.8,50C233.3,225.1,226.7,213.7,225.2,187.3z"/>
		<g id="XMLID_124_">
			<path id="XMLID_287_" class="st2" d="M292.9,231.7c-1.3,1.8-2.7,3.5-4.2,5.1c-11.9,1.8-28.6,7.1-29.8-3.4c-0.1-0.6-0.1-1.2,0-1.8
				C259.8,226.9,281.2,232.2,292.9,231.7z"/>
			<path id="XMLID_275_" class="st2" d="M307.4,177.3c-0.3,21.6-4.6,39-12.7,51.6c-6.4,0.3-20.5-3.3-26.8-0.1
				c-0.1,0.1-0.2,0.1-0.3,0.1c-0.3,0.1-0.5,0.2-0.8,0.3c0,0-0.1,0-0.1,0c0,0-0.1,0-0.1,0c-0.1,0-0.2,0-0.3,0.1c-0.1,0-0.2,0-0.3,0.1
				c-0.1,0-0.2,0-0.2,0.1c-0.1,0-0.2,0-0.2,0.1c-0.1,0-0.3,0.1-0.4,0.1c0,0,0,0,0,0c-0.1,0-0.3,0.1-0.5,0.1c0,0,0,0,0,0
				c-0.9,0.1-1.8,0.2-2.6,0.3c0,0,0,0,0,0c-0.2,0-0.4,0-0.7,0c0,0,0,0,0,0c-9.6,0.6-22.7,0.9-31.5-3.3c-1.5,0-2.3,0-2.3,0
				c-0.1,0-0.2,0-0.3,0c0,0,0,0,0,0c-0.6,0-0.9,0-0.9,0c-0.1,0-0.2,0-0.3,0c-7.4,0-15.2-1.1-22.3-3.4c-0.7-0.2-1.3-0.5-1.9-0.7
				c-0.2-0.1-0.5-0.2-0.7-0.3c-0.1,0-0.1,0-0.2-0.1c-0.6-0.2-1.1-0.5-1.7-0.7c-0.9-0.4-1.8-0.9-2.7-1.4c0,0-0.1,0-0.1-0.1
				c-0.4-0.3-0.8-0.5-1.2-0.8c-0.1-0.1-0.2-0.2-0.3-0.2c0,0-0.1-0.1-0.1-0.1c-0.1-0.1-0.3-0.2-0.4-0.4c-0.1-0.1-0.2-0.2-0.3-0.2
				c-0.3-0.2-0.5-0.5-0.7-0.8c0,0-0.1-0.1-0.1-0.1c-2.2-2.5,0.9-9.7,2.1-11.8c0-0.1,0.1-0.2,0.1-0.2c-2.3-7.2-1-11.5-1-11.5
				c3.4,0.8,6.1,4.2,6.1,4.2c2.4-2.9,7.5-4.2,11.1-4.4c-0.1-5.5,1.2-6.6,1.2-6.6c9.3,3,2.2,7.9,12.3,0c0.9,15.8,5.2,43.7,27.8,36.9
				c19.9-6,16.2-44.8,15.6-59.4C282.6,161.7,298.9,164.7,307.4,177.3C307.1,198.9,304,172.2,307.4,177.3z"/>
		</g>
		<g id="XMLID_7_">
			<path id="XMLID_286_" class="st4" d="M307.6,207.9c-0.4,0.9-0.9,1.8-1.4,2.5c-0.4,0.7-0.9,1.3-1.4,1.9c-1.1,1.2-2.2,2.3-3.5,3.1
				c-9.7,6.7-24.8,4.4-30.7,5c-0.8,0.1-2.1,0.2-3.7,0.2c-0.3,0-0.7,0-1,0c-1.6,0.1-3.5,0.1-5.6,0.2c-10.3,0.4-24.9,0.7-32.9,0.9
				c-3.4,0.1-5.6,0.1-5.6,0.1c-0.1,0-0.2,0-0.3,0c-0.1,0-0.2,0-0.3,0c-8.9-0.2-16.5-1.6-22.2-3.5c-3.6-1.2-6.4-2.5-8.2-3.9
				c-0.6-0.5-1.2-0.9-1.5-1.4c-0.2-0.2-0.3-0.4-0.4-0.6c-0.1-0.1-0.1-0.2-0.1-0.2c-2.2-4,2.2-11.2,2.4-11.6c0,0,0,0,0,0v0
				c0,0,0,0,0,0c-2.3-7.3-1-11.6-1-11.6c3.4,0.8,6.1,4.2,6.1,4.2c0.5-0.6,1.1-1.1,1.8-1.6c0.6-0.4,1.2-0.7,1.8-1
				c0.7-0.3,1.4-0.6,2.1-0.8c1.2-0.4,2.4-0.6,3.3-0.8c1.2-0.2,2-0.3,2-0.3c-0.1-5.5,1.7-7.8,1.7-7.8c2.4,0.8,4.5,6.4,5.4,6.4
				c0.7,0,1.8-2,10.2-8.1c0.6-0.4,1.2-0.9,1.9-1.3c1.6-1.1,3.5-2.4,5.6-3.8c0.3-0.2,0.6-0.4,0.9-0.6c0.5-0.3,0.9-0.6,1.4-0.9
				c1.8-1.2,3.7-2.3,5.6-3.4c0.9-0.5,1.7-1,2.6-1.4c1.4-0.8,2.9-1.5,4.4-2.2c0.7-0.3,1.4-0.7,2.1-1c1.3-0.6,2.6-1.1,3.9-1.6
				c1.8-0.7,3.5-1.3,5.3-1.9c1.9-0.6,3.9-1.1,5.9-1.5c0,0,0,0,0,0c0.1,0,0.3-0.1,0.4-0.1c3-0.6,6-0.9,9-1c0.2,0,0.4,0,0.5,0
				c2.1,0,4.2,0.1,6.3,0.4c2.9,0.4,5.8,1,8.7,2.1c6.1,2.2,11,6.6,14.4,12c1.1,1.8,2.1,3.7,2.9,5.6c0.3,0.8,0.6,1.6,0.9,2.4
				c1.3,3.7,2.1,7.5,2.4,11.3C310.2,198.2,309.5,203.6,307.6,207.9z"/>
			<path id="XMLID_264_" class="st5" d="M306.2,210.4c-0.4,0.7-0.9,1.3-1.4,1.9c-9,10.5-27.6,7.5-34.2,8.1c-0.8,0.1-2.1,0.2-3.7,0.2
				c-0.3,0-0.7,0-1,0c-1.6,0.1-3.5,0.1-5.6,0.2c-10.3,0.4-24.9,0.7-32.9,0.9c-3.4,0.1-5.6,0.1-5.6,0.1c-0.1,0-0.2,0-0.3,0
				c-0.1,0-0.2,0-0.3,0c-8.9-0.2-16.5-1.6-22.2-3.5c-3.6-1.2-6.4-2.5-8.2-3.9c-0.6-0.5-1.2-0.9-1.5-1.4c-0.2-0.2-0.3-0.4-0.4-0.6
				c-1.2-4.1,2.4-12.1,2.4-12.1c-2.3-7.3-0.6-10.1-0.6-10.1c3.4,0.8,6.1,4.2,6.1,4.2c0.5-0.6,1.1-1.1,1.8-1.6c0.6-0.4,1.2-0.7,1.8-1
				c0.7-0.3,1.4-0.6,2.1-0.8c1.2-0.4,2.4-0.6,3.3-0.8c1.2-0.2,2-0.3,2-0.3c-0.1-5.5,1.5-7.7,1.5-7.7c2.4,0.8,4.7,6.4,5.6,6.4
				c0.7,0,1.8-2,10.2-8.1c0.6-0.4,1.2-0.9,1.9-1.3c1.6-1.1,3.5-2.4,5.6-3.8c0.3-0.2,0.6-0.4,0.9-0.6c0.5-0.3,0.9-0.6,1.4-0.9
				c1.8-1.2,3.7-2.3,5.6-3.4c0.9-0.5,1.7-1,2.6-1.4c2.1-1.1,4.3-2.2,6.5-3.2c1.3-0.6,2.6-1.1,3.9-1.6c1.8-0.7,3.5-1.3,5.3-1.9
				c2.1-0.6,4.2-1.2,6.3-1.6c3.2-0.6,6.3-1,9.5-1c2.1,0,4.2,0.1,6.3,0.4c2.9,0.4,5.8,1,8.7,2.1c6.1,2.2,11,6.6,14.4,12
				c0.9,1.4,1.7,2.9,2.4,4.5C311,189.9,311,203,306.2,210.4z"/>
			<path id="XMLID_250_" class="st6" d="M316.7,212.2c0,14.1-13.5,19.9-31.6,23.3c-15.8,3-23.2,0.8-24.1-3.2c-0.1-0.6-0.1-1.2,0-1.8
				c1-5.2,20-2.6,32-4c12-1.4,18.1-5.7,18.9-14.3c0.8-8.6-2.2-14.4-2.2-14.4l-0.1-5.9l0-0.6C309.6,191.1,316.7,198.2,316.7,212.2z"
				/>
			<path id="XMLID_271_" class="st5" d="M314,209.1c0,14.1-13.7,20.7-31.8,24.1c-10.6,2-20.4,2-21.2-0.9c-0.1-0.6-0.1-1.2,0-1.8
				c1-5.2,20-2.6,32-4c12-1.4,18.1-5.7,18.9-14.3c0.8-8.6-2.2-14.4-2.2-14.4l-0.1-5.9c0.2,0.3,0.4,0.7,0.6,1.1
				C312.1,196.4,314,201.8,314,209.1z"/>
			<path id="XMLID_263_" class="st5" d="M315,212.3c0,14.1-13.4,17.5-31.5,20.9c-10.6,2-18.5,0.9-22.1-0.7c0-0.4,0-0.8,0.1-1.2
				c1-5.2,20-2.6,32-4c12-1.4,18.1-5.7,18.9-14.3c0.8-8.6-2.6-15.6-2.6-15.6l-0.2-6.2C314.1,195.8,315,204.8,315,212.3z"/>
			<g id="XMLID_20_">
				<path id="XMLID_254_" class="st6" d="M231.3,189.1c-2-5-4.7-7.9-6.8-9.5c0.6-0.4,1.2-0.9,1.9-1.3
					C230.3,182.8,231.3,189.1,231.3,189.1z"/>
				<path id="XMLID_252_" class="st6" d="M239.9,185.5c-2.3-5.8-5.3-9.2-7.8-11.2c0.3-0.2,0.6-0.4,0.9-0.6c0.5-0.3,0.9-0.6,1.4-0.9
					C238.7,178.4,239.9,185.5,239.9,185.5z"/>
				<path id="XMLID_251_" class="st6" d="M248.6,181.4c-2.6-6.5-6.1-10-8.7-11.8c0.9-0.5,1.7-1,2.6-1.4
					C247.3,173.6,248.6,181.4,248.6,181.4z"/>
				<path id="XMLID_249_" class="st6" d="M261,180.4c-3.6-9.1-8.7-13.5-12-15.5c1.3-0.6,2.6-1.1,3.9-1.6
					C259.2,170,260.9,180,261,180.4z"/>
				<path id="XMLID_248_" class="st6" d="M275.4,182.5c-5.3-13.4-13-18.9-17.2-21.1c2.1-0.6,4.2-1.2,6.3-1.6
					C273,168.7,275.3,182.1,275.4,182.5z"/>
				<path id="XMLID_242_" class="st6" d="M285.7,181.8c-2.4-12.7-7.8-19.6-11.7-23c2.1,0,4.2,0.1,6.3,0.4
					C286,169.4,285.7,181.8,285.7,181.8z"/>
			</g>
			<path id="XMLID_253_" class="st6" d="M221.2,221.9c-16.4-0.4-28.6-4.9-31.9-8.8l1.8-1.7c0,0,0,0.9,2.4,1.4c2.3,0.5,0-4.7,1.4-6.5
				c1.3-1.9,4.3-3.2,7.1-0.6c2.8,2.6,3.3,13,18.7,12L221.2,221.9z"/>
			<path id="XMLID_241_" class="st6" d="M306.2,210.4c-0.4,0.7-0.9,1.3-1.4,1.9c-9,10.5-27.6,7.5-34.2,8.1c-0.8,0.1-2.1,0.2-3.7,0.2
				c-0.3,0-0.7,0-1,0c-1.6,0.1-3.5,0.1-5.6,0.2c-10.3,0.4-24.9,0.7-32.9,0.9c-3.4,0.1-5.6,0.1-5.6,0.1c-0.1,0-0.2,0-0.3,0
				c-0.1,0-0.2,0-0.3,0c-8.9-0.2-16.5-1.6-22.2-3.5c1.9,0.2,12.6,1.1,20.4,0.6c8.6-0.6,29.4-19.4,45-16.2c15.6,3.2,49-8,39.4-28.7
				c-0.1-0.3-0.3-0.6-0.4-0.9C310.9,185,311.9,201.7,306.2,210.4z"/>
			<path id="XMLID_243_" class="st6" d="M261.5,220.9c-14.7,0.5-38.4,1-38.4,1c-0.1,0-0.2,0-0.3,0c-3.8-2.9-3.7-9,0.7-11.7
				c2.7-1.6,6.3-3,10.7-2.6c10,0.8,11.7,9.1,20.4,10.9C258.3,219.3,260.3,220.1,261.5,220.9z"/>
			<path id="XMLID_245_" class="st6" d="M265.8,220.7c-1.6,0.1-3.5,0.1-5.6,0.2c-10.3,0.4-24.9,0.7-32.9,0.9
				c-4.7-2.6-4.8-9.4-0.1-12.2c2.7-1.6,6.3-3,10.7-2.6c10,0.8,11.7,9.1,20.4,10.9C262.8,218.8,264.8,219.8,265.8,220.7z"/>
			<path id="XMLID_269_" class="st4" d="M264.2,223.1c0,0.3-0.2,0.6-0.7,0.9c-1.2,0.6-3.8,1.1-7.2,1.2c-2.3,0.1-4.9,0.1-7.7-0.1
				c-6-0.3-16.6-0.1-23.2-3.3c-3.8-1.8-4.9-6.1-3.3-9.5c0.6-1.2,1.5-2.2,2.7-3c2.7-1.6,6.3-3,10.7-2.6c10,0.8,11.7,9.1,20.4,10.9
				c0.3,0.1,0.5,0.1,0.8,0.2C264.5,219.6,264.1,221.5,264.2,223.1z"/>
			<path id="XMLID_267_" class="st5" d="M263.4,224c-0.1,0-0.2,0.1-0.2,0.1c-0.1,0-0.2,0.1-0.3,0.1c-0.1,0.1-0.3,0.1-0.5,0.2
				c-0.1,0-0.2,0.1-0.4,0.1c-0.3,0.1-0.5,0.1-0.9,0.2c-0.1,0-0.2,0-0.3,0.1c-0.7,0.1-1.5,0.2-2.4,0.3c-0.3,0-0.7,0.1-1,0.1
				c-0.2,0-0.4,0-0.7,0c-0.2,0-0.4,0-0.6,0c-2.3,0.1-4.9,0.1-7.7-0.1c-6-0.3-16.6-0.1-23.2-3.3c-3.8-1.8-4.9-6.1-3.3-9.5
				c0.5-0.7,1.2-1.3,2-1.8c2.7-1.6,6.3-3,10.7-2.6c10,0.8,11.7,9.1,20.4,10.9c0.3,0.1,0.5,0.1,0.8,0.2c0.4,0.1,0.9,0.2,1.2,0.3
				C263.3,220.9,263.4,222.6,263.4,224z"/>
			<path id="XMLID_244_" class="st6" d="M306.7,196.5c0,6.4-0.7,11.7-1.9,15.8c-9,10.5-27.6,7.5-34.2,8.1c-0.8,0.1-2.1,0.2-3.7,0.2
				c0-0.8,0.3-1.7,0.7-2.3c1.1-2.1,12.7-2.5,12-4.1c-0.7-1.6-5.9-2.4-5.9-12.8c0-0.2,0-0.4,0-0.6c0.3-7.9,6.5-14.4,14.4-15.2
				C295.5,184.9,306.7,185.6,306.7,196.5z"/>
			<path id="XMLID_305_" class="st4" d="M309.8,196.5c0,0.4,0,0.9,0,1.3c0,0.4,0,0.8,0,1.3c-0.6,12.5-5.6,20.3-9.8,23.1
				c-0.4,0.3-0.8,0.5-1.2,0.7c-0.1,0-0.2,0.1-0.3,0.1c-0.2,0.1-0.3,0.1-0.5,0.2c-0.2,0-0.3,0.1-0.5,0.1c0,0,0,0-0.1,0
				c-1.3,0.3-2.8,0.5-4.3,0.6c0,0-0.1,0-0.1,0c-4.9,0.5-10.6,0.4-16.4,0.4c-1.6,0-2.8-0.2-3.7-0.4c-3.7-1.1-3.6-3.3-2.1-5.5
				c1.5-2.2,12.7-2.5,12-4.1c-0.7-1.6-5.9-2.4-5.9-12.8c0-0.2,0-0.4,0-0.6c0.2-7.9,6.5-14.4,14.4-15.2c3.8-0.4,8.5-0.4,12.2,1.1h0
				c1,0.4,1.9,0.9,2.7,1.5c0.2,0.2,0.4,0.4,0.6,0.5c0.2,0.2,0.3,0.3,0.5,0.5c0.2,0.2,0.3,0.3,0.5,0.5c0.1,0.2,0.3,0.3,0.4,0.5
				c0,0,0,0.1,0.1,0.1c0.1,0.1,0.2,0.3,0.3,0.4c0.2,0.3,0.3,0.6,0.5,0.9c0.1,0.2,0.2,0.4,0.2,0.6c0,0,0,0,0,0.1
				c0.1,0.2,0.2,0.5,0.2,0.7c0.1,0.3,0.1,0.5,0.2,0.8c0,0,0,0,0,0c0,0.2,0.1,0.3,0.1,0.5c0,0.2,0,0.3,0.1,0.5
				C309.8,195.5,309.8,196,309.8,196.5z"/>
			<path id="XMLID_295_" class="st5" d="M309.8,196.5c0,0.4,0,0.9,0,1.3c0,0.4,0,0.8,0,1.3c-0.6,12.5-5.6,20.3-9.8,23.1
				c-0.4,0.3-0.8,0.5-1.2,0.7c-0.1,0-0.2,0.1-0.3,0.1c-0.2,0.1-0.3,0.1-0.5,0.2c-0.2,0-0.3,0.1-0.5,0.1c0,0,0,0-0.1,0
				c-0.3,0.1,1,0,0.4,0.1c-1.4,0.2-3,0.4-4.7,0.5c0,0-0.1,0-0.1,0c-5.1,0.4-11.2,0.4-16.4,0.4c-1.6,0-2.8-0.2-3.7-0.4
				c-2.6-1.2-2-3.7-1.2-5.2c1.1-2,12.7-2.5,12-4.1c-0.7-1.6-5.9-2.4-5.9-12.8c0-0.2,0-0.4,0-0.6c0.2-7.9,6.5-14.4,14.4-15.2
				c3.5-0.3,7.7-0.4,11.3,0.8h0c1,0.4,1.9,0.9,2.7,1.5c0.2,0.2,0.4,0.4,0.6,0.5c0.2,0.2,0.3,0.3,0.5,0.5c0.2,0.2,0.3,0.3,0.5,0.5
				c0.1,0.2,0.3,0.3,0.4,0.5c0,0,0,0.1,0.1,0.1c0.1,0.1,0.2,0.3,0.3,0.4c0.2,0.3,0.3,0.6,0.5,0.9c0.1,0.2,0.2,0.4,0.2,0.6
				c0,0,0,0,0,0.1c0.1,0.2,0.2,0.5,0.2,0.7c0.1,0.3,0.1,0.5,0.2,0.8c0,0,0,0,0,0c0,0.2,0.1,0.3,0.1,0.5c0,0.2,0,0.3,0.1,0.5
				C309.8,195.5,309.8,196,309.8,196.5z"/>
			<path id="XMLID_255_" class="st6" d="M190.8,214.6c-0.6-0.5-1.2-0.9-1.5-1.4c-0.2-0.3-0.4-0.5-0.5-0.8c-2.2-4,2.2-11.2,2.4-11.6
				c-0.1,0.4-2.8,7.2-0.1,10.7C191.9,212.5,191.6,213.6,190.8,214.6z"/>
			<path id="XMLID_28_" class="st6" d="M191.8,198.9c0,0-1.1-5.2-0.7-7.9c0,0,2.3,0.4,3.9,3.2C195,194.3,192.1,197.6,191.8,198.9z"
				/>
			<path id="XMLID_238_" class="st6" d="M209.3,182.7c0,0-1.2,4.1-0.9,6.4c0,0,3.3-0.7,4.9-0.6C213.3,188.6,211.4,184.5,209.3,182.7
				z"/>
			<g id="XMLID_69_">
				<g id="XMLID_235_">
					<g id="XMLID_145_">
						<path id="XMLID_284_" class="st7" d="M191,206.7c0,0,0-0.4,0.2-0.9c0.1-0.1,0.1-0.3,0.2-0.4c0.1-0.1,0.2-0.3,0.3-0.4
							c0.1-0.1,0.2-0.3,0.4-0.4c0.1-0.1,0.3-0.2,0.4-0.3c0.2-0.1,0.3-0.2,0.5-0.3c0.2-0.1,0.4-0.1,0.5-0.1c0.2,0,0.3,0,0.5,0
							c0.1,0,0.2,0,0.2,0c0.1,0,0.1,0,0.2,0c0.1,0,0.3,0.1,0.4,0.1c0.1,0,0.2,0.1,0.3,0.1c0.1,0.1,0.2,0.1,0.2,0.1s-0.1,0-0.2,0
							c-0.1,0-0.2,0-0.3,0c-0.1,0-0.2,0-0.3,0c-0.1,0-0.2,0-0.4,0.1c-0.1,0-0.3,0.1-0.4,0.1c-0.1,0-0.1,0-0.2,0.1
							c-0.1,0-0.1,0.1-0.2,0.1c-0.1,0.1-0.3,0.1-0.4,0.2c-0.1,0.1-0.2,0.2-0.4,0.3c-0.1,0.1-0.2,0.2-0.3,0.3
							c-0.1,0.1-0.2,0.2-0.3,0.3c-0.1,0.1-0.2,0.2-0.3,0.3C191.3,206.4,191,206.7,191,206.7z"/>
					</g>
					<g id="XMLID_146_">
						<path id="XMLID_282_" class="st7" d="M199.6,203.1c0,0,0.1-0.1,0.2-0.2c0.1-0.1,0.1-0.2,0.3-0.2c0.1-0.1,0.2-0.2,0.4-0.3
							c0.1-0.1,0.3-0.2,0.5-0.2c0.2-0.1,0.4-0.1,0.6-0.2c0.2-0.1,0.4-0.1,0.7-0.1c0.2,0,0.5,0,0.7,0.1c0.2,0.1,0.5,0.1,0.7,0.2
							c0.2,0.1,0.4,0.1,0.6,0.3c0.2,0.1,0.4,0.2,0.5,0.3c0.2,0.1,0.3,0.2,0.4,0.3c0.1,0.1,0.2,0.2,0.3,0.3c0.1,0.1,0.2,0.2,0.2,0.3
							c0.1,0.1,0.2,0.2,0.2,0.2s-0.1,0-0.3-0.1c-0.2-0.1-0.4-0.2-0.7-0.3c-0.1-0.1-0.3-0.1-0.5-0.2c-0.2-0.1-0.3-0.1-0.5-0.2
							c-0.2-0.1-0.4-0.1-0.6-0.2c-0.2-0.1-0.4-0.1-0.6-0.1c-0.2,0-0.4,0-0.6-0.1c-0.2,0-0.4,0-0.6,0c-0.2,0-0.4,0-0.5,0.1
							c-0.2,0-0.3,0.1-0.5,0.1C200,202.9,199.6,203.1,199.6,203.1z"/>
					</g>
					<g id="XMLID_158_">
						<path id="XMLID_280_" class="st7" d="M196.3,206.5c-0.3,0.2-0.3,0.6-0.1,0.9c0.4,0.6,1.3,1.4,1.9,1.3c0.6-0.2,0.8-2,0.6-2.5
							C198.5,205.8,197.3,205.7,196.3,206.5z"/>
					</g>
					<g id="XMLID_161_">
						
							<rect id="XMLID_236_" x="197.2" y="209.2" transform="matrix(0.3944 0.919 -0.919 0.3944 312.5999 -55.5401)" class="st7" width="2.5" height="0.4"/>
					</g>
					<g id="XMLID_139_">
						<path id="XMLID_276_" class="st7" d="M196.2,209.7c0,0,0.3,0.3,0.8,0.6c0.3,0.1,0.6,0.3,1,0.4c0.2,0,0.4,0.1,0.6,0
							c0,0,0,0,0.1,0l0.1,0c0,0,0.1,0,0.1,0c0.1-0.1,0.2-0.1,0.3-0.2c0.2-0.1,0.3-0.3,0.4-0.4c0.1-0.2,0.2-0.3,0.3-0.5
							c0.2-0.3,0.4-0.6,0.5-0.9c0.2-0.5,0.3-0.9,0.3-0.9s-0.1,0.1-0.1,0.2c-0.1,0.1-0.2,0.3-0.4,0.6c-0.2,0.2-0.3,0.5-0.6,0.8
							c-0.1,0.1-0.2,0.3-0.3,0.4c-0.1,0.1-0.2,0.3-0.4,0.4c-0.1,0.1-0.1,0.1-0.2,0.1c0,0-0.1,0-0.1,0l-0.1,0c0,0,0,0,0,0
							c-0.2,0-0.3,0-0.5,0c-0.3,0-0.7-0.1-0.9-0.2c-0.3-0.1-0.5-0.2-0.6-0.3C196.3,209.8,196.2,209.7,196.2,209.7z"/>
					</g>
				</g>
			</g>
		</g>
		<path id="XMLID_274_" class="st8" d="M273.9,162.8l-1.8,51.4c0,0-9.9,5.6-11.5,4.9c-1.6-0.7-6.2-1.6-6.2-1.6s23.6-50.2-7.7-51.5
			c0.7-0.3,1.4-0.7,2.1-1c1.3-0.6,2.6-1.1,3.9-1.6c1.8-0.7,3.5-1.3,5.3-1.9c1.9-0.6,3.9-1.1,5.9-1.5c0,0,0,0,0,0
			c4.9-0.7,8.7-1.1,9.4-1.1L273.9,162.8z"/>
		<path id="XMLID_272_" class="st2" d="M306.1,155.1c-12.7-0.1-25.5-0.6-38.2,0.2c0.6,5.7,0.9,12.2,0.9,19.6c0,21.5-2.8,36.4-8.1,44
			c0,0,0.8,0.3,2.1,1.1c0.2,0.1,0.8,0.7,0.8,0.7s0.7,1.2,0.6,2.4c0.9,0.4,1.6,4.4,1.6,4.4s3.4-0.5,3.9-0.4c4.6-0.3,9.6-0.2,13.7-0.3
			c4.8-0.2,8.7-0.3,13.1-0.9c6.4-12.5,10.9-31.2,10.9-51C307.4,167.9,307,161.3,306.1,155.1z"/>
		<g id="XMLID_237_">
			<g id="XMLID_261_">
				<path id="XMLID_262_" class="st7" d="M189.6,178l0.5,1.2l-1.4,4.5l3-1.3l0.7,1.5l-5.4,2.4l-0.5-1.2l1.4-4.5l-2.8,1.2l-0.7-1.5
					L189.6,178z"/>
			</g>
			<g id="XMLID_258_">
				<path id="XMLID_266_" class="st7" d="M197.8,163.3l0.1,1.3l-2.7,3.9l3.2-0.3l0.2,1.6l-5.9,0.6l-0.1-1.3l2.7-3.9l-3,0.3l-0.2-1.6
					L197.8,163.3z"/>
			</g>
			<g id="XMLID_279_" class="st9">
				<path id="XMLID_281_" class="st7" d="M187.8,149.6l0.1,1l-2.1,2.9l2.5-0.3l0.1,1.2l-4.5,0.5l-0.1-1l2.1-2.9l-2.3,0.2l-0.1-1.2
					L187.8,149.6z"/>
			</g>
			<g id="XMLID_288_" class="st10">
				<path id="XMLID_290_" class="st7" d="M199.4,136.4l-0.2,0.7l-2.2,1.5l1.8,0.4l-0.2,0.9l-3.3-0.8l0.2-0.7l2.2-1.5l-1.7-0.4
					l0.2-0.9L199.4,136.4z"/>
			</g>
			<g id="XMLID_292_" class="st11">
				<path id="XMLID_297_" class="st7" d="M186.9,129.5l0.2,0.7l-1,2.5l1.7-0.6l0.3,0.9L185,134l-0.2-0.7l1-2.5l-1.6,0.5l-0.3-0.9
					L186.9,129.5z"/>
			</g>
		</g>
	</g>
</g>
</svg>
