<?xml version="1.0" encoding="utf-8"?>
<!-- Generator: Adobe Illustrator 19.0.0, SVG Export Plug-In . SVG Version: 6.00 Build 0)  -->
<svg version="1.1" id="OBJECTS" xmlns="http://www.w3.org/2000/svg" xmlns:xlink="http://www.w3.org/1999/xlink" x="0px" y="0px"
	 viewBox="0 0 436.7 264.7" style="enable-background:new 0 0 436.7 264.7;" xml:space="preserve">
<style type="text/css">
	.st0{fill:#F0F0F0;}
	.st1{fill:#CAE2FC;}
	.st2{fill:#A9D1FC;}
	.st3{fill:#FFFFFF;}
	.st4{opacity:0.1;}
	.st5{fill:#FF765E;}
	.st6{font-family:'Roboto-Regular';}
	.st7{font-size:46.4619px;}
	.st8{fill:#66A1E3;}
	.st9{fill:#78B3F5;}
	.st10{fill:#A8D1FF;}
	.st11{fill:url(#SVGID_1_);}
	.st12{fill:url(#SVGID_2_);}
	.st13{fill:#ADE68F;}
	.st14{fill:none;stroke:#88BD6D;stroke-width:0.6537;stroke-linecap:round;stroke-linejoin:round;stroke-miterlimit:10;}
	.st15{fill:url(#SVGID_3_);}
	.st16{fill:none;stroke:#88BD6D;stroke-width:0.75;stroke-linecap:round;stroke-linejoin:round;stroke-miterlimit:10;}
	.st17{fill:#88BD6D;}
	.st18{fill:#A87C56;}
	.st19{fill:#BA8A60;}
	.st20{fill:url(#SVGID_4_);}
	.st21{fill:#D68E4F;}
	.st22{fill:#E3A874;}
	.st23{fill:url(#SVGID_5_);}
	.st24{fill:url(#SVGID_6_);}
	.st25{opacity:0.31;fill:#874732;}
	.st26{fill:url(#SVGID_7_);}
	.st27{opacity:0.5;fill:#FF7C4F;}
	.st28{fill:url(#SVGID_8_);}
	.st29{fill:url(#SVGID_9_);}
	.st30{fill:#FFFBF7;}
	.st31{fill:#874732;}
	.st32{opacity:0.55;}
	.st33{fill:#FF915E;}
	.st34{opacity:0.31;}
	.st35{opacity:0.5;}
	.st36{fill:#FF7C4F;}
</style>
<g>
	<polygon class="st0" points="304.2,145.9 118,142.3 120.2,31.5 151.5,16.7 306.6,19.7 	"/>
	<polygon class="st1" points="305.4,144.1 119.3,144.1 119.3,34.2 152.6,17.9 305.4,17.9 	"/>
	<polygon class="st2" points="292.9,134.8 129.9,132.7 132.4,34 144.5,25.4 294.8,27.6 	"/>
	<polygon class="st3" points="294.8,132.7 129.9,132.7 129.9,36 139.9,27.6 294.8,27.6 	"/>
	<path class="st4" d="M119.3,34.2l13.5,8.7c0.6,0.4,1.5,0.2,1.9-0.3l18-24.6L119.3,34.2z"/>
	<path class="st2" d="M119.3,34.2l13.3,5.8c0.9,0.4,2,0.1,2.6-0.6l17.4-21.5L119.3,34.2z"/>
	<text transform="matrix(0.9524 -0.305 0.305 0.9524 143.7903 117.861)" class="st5 st6 st7">Oops !!!</text>
	<g>
		<circle class="st4" cx="295.6" cy="28.3" r="3.2"/>
		<circle class="st8" cx="295.3" cy="27.6" r="3.2"/>
		<circle class="st9" cx="295.3" cy="27.6" r="1.8"/>
		<g>
			<path class="st10" d="M295.5,26c0.5,0,0.9,0.2,1.2,0.5c-0.3-0.4-0.8-0.7-1.4-0.7c-1,0-1.8,0.8-1.8,1.8c0,0.5,0.2,1,0.6,1.3
				c-0.2-0.3-0.4-0.7-0.4-1.1C293.7,26.8,294.5,26,295.5,26z"/>
		</g>
	</g>
	<g>
		<circle class="st4" cx="297.2" cy="137" r="3.2"/>
		<circle class="st8" cx="296.9" cy="136.3" r="3.2"/>
		<circle class="st9" cx="296.9" cy="136.3" r="1.8"/>
		<g>
			<path class="st10" d="M297.1,134.7c0.5,0,0.9,0.2,1.2,0.5c-0.3-0.4-0.8-0.7-1.4-0.7c-1,0-1.8,0.8-1.8,1.8c0,0.5,0.2,1,0.6,1.3
				c-0.2-0.3-0.4-0.7-0.4-1.1C295.3,135.5,296.1,134.7,297.1,134.7z"/>
		</g>
	</g>
	<g>
		<circle class="st4" cx="130.1" cy="133.5" r="3.2"/>
		<circle class="st8" cx="129.8" cy="132.8" r="3.2"/>
		<circle class="st9" cx="129.8" cy="132.8" r="1.8"/>
		<g>
			<path class="st10" d="M130,131.2c0.5,0,0.9,0.2,1.2,0.5c-0.3-0.4-0.8-0.7-1.4-0.7c-1,0-1.8,0.8-1.8,1.8c0,0.5,0.2,1,0.6,1.3
				c-0.2-0.3-0.4-0.7-0.4-1.1C128.2,132,129,131.2,130,131.2z"/>
		</g>
	</g>
</g>
<radialGradient id="SVGID_1_" cx="211.6797" cy="205.4026" r="166.6973" gradientTransform="matrix(1.1788 0 0 5.773900e-02 -38.3734 193.5429)" gradientUnits="userSpaceOnUse">
	<stop  offset="0" style="stop-color:#E8E8D0"/>
	<stop  offset="1" style="stop-color:#FFFFFF"/>
</radialGradient>
<rect x="10.4" y="204.3" class="st11" width="403.9" height="18.1"/>
<g>
	<g>
		<g>
			
				<linearGradient id="SVGID_2_" gradientUnits="userSpaceOnUse" x1="101.6209" y1="151.5191" x2="104.3774" y2="180.3193" gradientTransform="matrix(0.9643 0.2648 -0.2648 0.9643 49.3276 -22.5686)">
				<stop  offset="0" style="stop-color:#A1D685"/>
				<stop  offset="1" style="stop-color:#71C782"/>
			</linearGradient>
			<path class="st12" d="M98.6,187.9c0,0-2.2-26.6,1.7-32.6c3.7-5.6,13.5-2.9,11.6,6.2c-1.3,5.9-7,25.7-7,25.7L98.6,187.9z"/>
			<g>
				<path class="st13" d="M102.5,155.9c1.4-2.2,3.8-3.1,6-2.9c-2.7-1.3-6.3-0.6-8.2,2.3c-3.9,6-1.7,32.6-1.7,32.6l2.1-0.2
					C100.4,183.1,99,161.3,102.5,155.9z"/>
			</g>
		</g>
		<line class="st14" x1="102.5" y1="154" x2="101.4" y2="151.8"/>
		<line class="st14" x1="106.6" y1="153.3" x2="106.9" y2="150.8"/>
		<line class="st14" x1="109.9" y1="155.1" x2="111" y2="152.9"/>
		<line class="st14" x1="111.4" y1="158" x2="113.2" y2="156.3"/>
		<line class="st14" x1="109.3" y1="166.7" x2="111.6" y2="167.4"/>
		<line class="st14" x1="108.5" y1="170.8" x2="110.8" y2="170.1"/>
		<line class="st14" x1="107.9" y1="173.5" x2="109.5" y2="173.8"/>
		<line class="st14" x1="111.3" y1="161" x2="113.2" y2="160.1"/>
		<line class="st14" x1="110.2" y1="164" x2="112.4" y2="164"/>
		<line class="st14" x1="101.3" y1="156.5" x2="99.3" y2="155.1"/>
	</g>
	<g>
		<g>
			<linearGradient id="SVGID_3_" gradientUnits="userSpaceOnUse" x1="90.8594" y1="152.9278" x2="93.2761" y2="178.1779">
				<stop  offset="0.1134" style="stop-color:#A1D685"/>
				<stop  offset="1" style="stop-color:#71C782"/>
			</linearGradient>
			<path class="st15" d="M91.6,184.4c0,0-10.5-28.7-8-36.6c2.3-7.3,14.1-7.3,14.7,3.3c0.4,6.9,0.1,30.6,0.1,30.6L91.6,184.4z"/>
			<g>
				<path class="st13" d="M86.1,147.8c0.9-2.8,3.2-4.6,5.8-5c-3.4-0.6-7.1,1.2-8.4,5c-2.5,7.9,8,36.6,8,36.6l2.3-0.9
					C92.1,178.6,83.9,154.8,86.1,147.8z"/>
			</g>
		</g>
		<line class="st16" x1="85.1" y1="158.4" x2="82.7" y2="158.4"/>
		<line class="st16" x1="86" y1="163.3" x2="83.2" y2="163.5"/>
		<line class="st16" x1="87.3" y1="167.8" x2="84.7" y2="168.8"/>
		<line class="st16" x1="85.5" y1="145.7" x2="83.6" y2="143.7"/>
		<line class="st16" x1="89.9" y1="143.7" x2="89.4" y2="140.9"/>
		<line class="st16" x1="94.1" y1="144.7" x2="94.6" y2="142"/>
		<line class="st16" x1="96.6" y1="147.5" x2="98" y2="145"/>
		<line class="st16" x1="96.9" y1="157.7" x2="99.7" y2="157.8"/>
		<line class="st16" x1="97.3" y1="162.5" x2="99.7" y2="161"/>
		<line class="st16" x1="97.4" y1="165.7" x2="99.3" y2="165.5"/>
		<line class="st16" x1="97.4" y1="150.8" x2="99.2" y2="149.2"/>
		<line class="st16" x1="97.1" y1="154.5" x2="99.5" y2="153.8"/>
		<line class="st16" x1="85" y1="148.8" x2="82.3" y2="148"/>
		<line class="st16" x1="84.6" y1="152.5" x2="81.8" y2="152.8"/>
		<circle class="st17" cx="87.8" cy="148.8" r="0.5"/>
		<circle class="st17" cx="92" cy="151.2" r="0.9"/>
		<circle class="st17" cx="94.6" cy="159.3" r="1.7"/>
		
			<ellipse transform="matrix(0.8061 0.5918 -0.5918 0.8061 116.2798 -22.3188)" class="st17" cx="92.2" cy="166.3" rx="0.9" ry="1.2"/>
		<circle class="st17" cx="90.1" cy="154.5" r="0.7"/>
	</g>
	<g>
		<polygon class="st18" points="83.2,179.4 85.6,206.9 89.3,206.9 89,205.5 95.7,205.5 95.8,206.9 101.5,206.9 101.8,205.5 
			107,205.5 106.9,206.9 110.2,206.9 112.7,179.4 		"/>
		<polygon class="st19" points="88.2,179.4 83.2,179.4 85.6,206.9 89.3,206.9 89,205.5 90.9,205.5 		"/>
		<linearGradient id="SVGID_4_" gradientUnits="userSpaceOnUse" x1="83.1765" y1="181.7018" x2="112.6889" y2="181.7018">
			<stop  offset="0" style="stop-color:#805E41"/>
			<stop  offset="1" style="stop-color:#A87C56"/>
		</linearGradient>
		<polygon class="st20" points="83.4,182.3 112.3,184 112.7,179.4 83.2,179.4 		"/>
		<polygon class="st21" points="113.1,181.7 113.6,176.7 82.3,176.7 82.7,181.7 		"/>
		<polygon class="st22" points="87.2,176.7 82.3,176.7 82.7,181.7 87.8,181.7 		"/>
	</g>
</g>
<g>
	<g>
		
			<linearGradient id="SVGID_5_" gradientUnits="userSpaceOnUse" x1="301.8184" y1="234.4692" x2="291.3504" y2="182.6526" gradientTransform="matrix(0.997 -7.710000e-02 7.710000e-02 0.997 -13.3932 34.2873)">
			<stop  offset="0" style="stop-color:#FFDA5E"/>
			<stop  offset="1" style="stop-color:#E89540"/>
		</linearGradient>
		<path class="st23" d="M301.8,255.1c-11.7,0.9-23.1-4-30.7-13.5c-1.9-2.4-1.5-5.8,0.8-7.7c2.4-1.9,5.8-1.5,7.7,0.8
			c7.6,9.4,18.4,10.6,26,8.6c8.2-2.2,13.8-8,15-15.5c1.9-12-4.2-21.5-9.5-29.8c-3-4.6-5.6-8.7-6.5-12.8c-0.7-3,1.2-5.9,4.1-6.6
			c3-0.7,5.9,1.2,6.6,4.1c0.5,2.2,2.7,5.6,5,9.3c5.8,9,13.7,21.3,11.1,37.4c-1.9,11.8-10.7,21.1-23,24.4
			C306.3,254.6,304,255,301.8,255.1z"/>
	</g>
	<linearGradient id="SVGID_6_" gradientUnits="userSpaceOnUse" x1="235.9283" y1="181.0261" x2="235.9283" y2="242.2854">
		<stop  offset="0" style="stop-color:#FFDA5E"/>
		<stop  offset="1" style="stop-color:#E89540"/>
	</linearGradient>
	<path class="st24" d="M311.4,162c-12.7-21.7-45.4-22.5-60.4-16.6c-15.1,5.9-35.9,14.4-40.4,14.1c-20.1-1.4-46.4,21.6-46.4,21.6
		s-9.6,5.9-9.6,14.1c0,8.1,4.7,10.3,9.6,10.3c3,0,50,0,88.6,0c-2.7,1.2-5.4,2.7-4.9,4.1c1.2,3.2,7.7,3.6,13.9,2.2
		c5.6-1.2,41.8-1.5,49.7-11.2C320.7,189.4,317.2,171.9,311.4,162z"/>
	<path class="st25" d="M223.7,155.9L164.3,181c0,0,4.3,13.2,23.1,16.4c0,0,0,0,0,0c4.2,0.5,7.9,4.3,7.7,8h4.7c0,0,1.2-6.7,8.7-8.6
		c0,0,0,0,0,0C238,190.6,223.7,155.9,223.7,155.9z"/>
	<g>
		<g>
			<g>
				
					<linearGradient id="SVGID_7_" gradientUnits="userSpaceOnUse" x1="180.0235" y1="88.6353" x2="180.0235" y2="137.2087" gradientTransform="matrix(0.8959 -0.4443 0.4443 0.8959 -35.2369 139.2145)">
					<stop  offset="0" style="stop-color:#FFDA5E"/>
					<stop  offset="1" style="stop-color:#E89540"/>
				</linearGradient>
				<path class="st26" d="M164.8,161.7c0,0-8.6-15.3-8.2-29.8c0-1.8,1.7-3.1,3.4-2.8c4.2,0.8,11.8,3.4,18.6,11.7L164.8,161.7z"/>
				<path class="st27" d="M165.8,153.9c0,0-5.1-9.1-4.9-17.7c0-1.1,1-1.8,2-1.6c2.5,0.5,7.1,2,11.1,7L165.8,153.9z"/>
			</g>
		</g>
		<g>
			<g>
				
					<linearGradient id="SVGID_8_" gradientUnits="userSpaceOnUse" x1="562.6803" y1="171.5695" x2="562.6803" y2="220.1451" gradientTransform="matrix(-0.9993 3.650000e-02 3.650000e-02 0.9993 757.4948 -62.4932)">
					<stop  offset="0" style="stop-color:#FFDA5E"/>
					<stop  offset="1" style="stop-color:#E89540"/>
				</linearGradient>
				<path class="st28" d="M213,149.4c0,0,0.3-17.6-7-30.1c-0.9-1.5-2.9-1.9-4.3-0.8c-3.3,2.7-8.8,8.7-10.8,19.2L213,149.4z"/>
				<path class="st27" d="M208.4,143.1c0,0,0.2-10.5-4.1-17.9c-0.5-0.9-1.8-1.1-2.6-0.5c-2,1.6-5.2,5.2-6.4,11.4L208.4,143.1z"/>
			</g>
		</g>
	</g>
	
		<linearGradient id="SVGID_9_" gradientUnits="userSpaceOnUse" x1="189.8644" y1="156.1971" x2="189.8644" y2="246.1534" gradientTransform="matrix(0.9693 -0.2459 0.2459 0.9693 -33.455 51.1919)">
		<stop  offset="0" style="stop-color:#FFDA5E"/>
		<stop  offset="1" style="stop-color:#E89540"/>
	</linearGradient>
	<path class="st29" d="M183.7,135.2c-17.4,4.4-26.8,25.7-20.4,43.1c6.3,17.5,24.3,16.8,35,14.1c10.7-2.7,26.8-10.7,24-29.1
		S201.1,130.8,183.7,135.2z"/>
	<path class="st30" d="M203.4,170.9c1.1,4.2-3.5,5-9,6.4c-5.5,1.4-9.9,2.8-11-1.4c-1.1-4.2,2.5-8.7,8.1-10.1
		C197,164.4,202.3,166.7,203.4,170.9z"/>
	<g>
		<path class="st31" d="M204.5,154.2c-3.6-0.2-7,1.4-9.2,4.3c-1,1.3,0.9,3.1,1.9,1.8c1.8-2.4,4.3-3.6,7.3-3.4
			C206.2,156.9,206.1,154.3,204.5,154.2z"/>
		<path class="st31" d="M175.3,161.6c3-1.9,6.8-2.1,10.1-0.6c1.5,0.7,0.7,3.2-0.8,2.5c-2.7-1.3-5.5-1.1-8.1,0.5
			C175.1,164.8,173.9,162.5,175.3,161.6z"/>
	</g>
	<g>
		<path class="st31" d="M193.3,172.9c-2.9,0.7-5.4-0.8-5.5-2.7c-0.2-1.9,2-2.3,4.1-2.8c2.2-0.5,4.3-1.2,5,0.5
			C197.6,169.6,196.2,172.2,193.3,172.9z"/>
	</g>
	<g class="st32">
		<circle class="st33" cx="177" cy="172.5" r="6.2"/>
		<circle class="st33" cx="207.5" cy="164.8" r="6.2"/>
	</g>
	<g>
		<g>
			<g>
				<path class="st31" d="M166.8,176.1c-0.1,0-0.3,0-0.4-0.1c-0.3-0.2-0.3-0.5-0.2-0.8c2.5-3.8,7.4-3.8,7.6-3.8
					c0.3,0,0.5,0.3,0.5,0.6c0,0.3-0.2,0.6-0.6,0.5c0,0-4.5,0-6.7,3.3C167,175.9,166.9,176,166.8,176.1z"/>
			</g>
			<g>
				<path class="st31" d="M170.7,180.5c-0.1,0-0.2,0-0.3,0c-0.3-0.1-0.4-0.4-0.3-0.7c1.2-3.1,4.6-4.9,4.8-5c0.3-0.1,0.6,0,0.7,0.2
					c0.1,0.3,0,0.6-0.2,0.7c0,0-3.2,1.6-4.2,4.4C171.1,180.3,170.9,180.5,170.7,180.5z"/>
			</g>
		</g>
		<g>
			<g>
				<path class="st31" d="M218.1,163c-0.1,0-0.3,0-0.4,0c-3.5-1.9-7.4,0.3-7.4,0.3c-0.3,0.2-0.6,0.1-0.7-0.2
					c-0.1-0.3-0.1-0.6,0.2-0.7c0.2-0.1,4.5-2.5,8.5-0.3c0.3,0.1,0.4,0.5,0.2,0.7C218.4,162.9,218.3,163,218.1,163z"/>
			</g>
			<g>
				<path class="st31" d="M216.8,168.8c-0.2,0-0.4,0-0.5-0.1c-2.2-1.9-5.8-1.8-5.8-1.8c-0.3,0-0.6-0.2-0.6-0.5
					c0-0.3,0.2-0.6,0.5-0.6c0.2,0,4-0.1,6.6,2.1c0.2,0.2,0.3,0.5,0.1,0.8C217,168.7,216.9,168.8,216.8,168.8z"/>
			</g>
		</g>
	</g>
	<g class="st34">
		<path class="st31" d="M195.9,181.9c-2.4,0.6-4.6,0.2-4.7,0.1c-0.3-0.1-0.5-0.4-0.5-0.7c0.1-0.3,0.4-0.5,0.7-0.5
			c0,0,4.6,0.9,7.2-1.8c0.2-0.2,0.6-0.2,0.8,0c0.2,0.2,0.2,0.6,0,0.8C198.5,181,197.2,181.6,195.9,181.9z"/>
	</g>
	<g class="st35">
		<path class="st36" d="M250.7,145.5c2.2,4.2,5,10.4,6,17.1c1.5,9.4,8,7.2,9.9,4.1c1.5-2.4,2.8-15.7,0.5-24.4
			c-6.2,0.3-11.9,1.4-16.1,3.1C250.9,145.4,250.8,145.4,250.7,145.5z"/>
		<path class="st36" d="M270.5,142.2c1.2,4.1,2.2,9.2,2.2,14.3c0,9.5,6.8,8.4,9.1,5.6c1.5-1.7,3.9-10.1,4.4-18
			C280.9,142.8,275.6,142.2,270.5,142.2z"/>
		<path class="st36" d="M241.4,171.1c3.5,8.8,9.4,5.3,10.6,1.9c1-2.9-0.9-18.1-5.8-25.6c-5.3,2.1-10.9,4.3-16.2,6.3
			C233.1,157,238.4,163.4,241.4,171.1z"/>
	</g>
	<path class="st25" d="M252.8,205.4c0,0,12.2-4.9,14.5-9.6c1.6-3.2,2.3-18.5,11-22.4c0,0-10.9,0-18.8,15
		c-5.9,11.3-18.9,16.5-24.6,17C242.8,205.4,252.8,205.4,252.8,205.4z"/>
	<g class="st35">
		<path class="st36" d="M309.7,241.9c-1.3,0.6-2.6,1.1-4,1.5c-1.6,0.4-3.4,0.7-5.2,0.8c0.5,3.2,0.5,7.2-1,11.1c0.8,0,1.6,0,2.4-0.1
			c2.2-0.2,4.4-0.5,6.6-1.1c0.4-0.1,0.8-0.3,1.3-0.4C310.5,249.3,310.3,245.3,309.7,241.9z"/>
		<path class="st36" d="M283.1,251.4c2.9,1.5,6,2.5,9.2,3.1c1.9-3.6,2.7-7.3,2.8-10.7c-3.3-0.5-6.6-1.7-9.7-3.8
			C285.9,242.8,286,247.4,283.1,251.4z"/>
		<path class="st36" d="M325.5,243.2c-1.3-5.2-3.7-9.4-5.7-12.1c-1.2,3.3-3.2,6.1-6,8.3c1.6,2.9,3.1,6.8,3,11.2
			C320.2,248.6,323.1,246.1,325.5,243.2z"/>
	</g>
	<g class="st34">
		<path class="st31" d="M184.2,202.2c-0.3,0-0.6,0.3-0.6,0.6c0,0.3,0.3,0.6,0.6,0.6c0.1,0,2.9,0.1,3.4,2c0.4,0,0.8,0,1.2,0
			C188.4,202.9,185.7,202.2,184.2,202.2z"/>
		<path class="st31" d="M193.1,205.4c-0.1-4.1-4.8-5.6-5-5.7c-0.3-0.1-0.6,0.1-0.7,0.4c-0.1,0.3,0.1,0.6,0.4,0.7
			c0,0,4.1,1.4,4.2,4.6C192.3,205.4,192.7,205.4,193.1,205.4C193.1,205.4,193.1,205.4,193.1,205.4z"/>
	</g>
	<g class="st34">
		<path class="st31" d="M202.8,205.4c0.7-3,3.2-4.1,3.4-4.2c0.3-0.1,0.4-0.5,0.3-0.8c-0.1-0.3-0.5-0.4-0.8-0.3
			c-0.2,0.1-3.4,1.5-4.1,5.3C202,205.4,202.4,205.4,202.8,205.4z"/>
		<path class="st31" d="M208.6,203.3c0.3-0.2,0.4-0.5,0.2-0.8c-0.2-0.3-0.5-0.4-0.8-0.2c-0.1,0.1-1.8,1-2.5,3.1c0.4,0,0.9,0,1.3,0
			C207.4,204.1,208.5,203.4,208.6,203.3z"/>
	</g>
	<g class="st34">
		<path class="st31" d="M256.8,208.3c-0.1,0.1-3.1,1.2-4.8,3.8c0.4,0.1,0.8,0.2,1.3,0.2c1.5-2,3.8-2.9,3.9-2.9
			c0.3-0.1,0.5-0.5,0.4-0.8C257.4,208.4,257.1,208.2,256.8,208.3z"/>
		<path class="st31" d="M255.7,207.2c-0.1-0.3-0.4-0.5-0.7-0.5c-0.2,0-3.8,0.8-6.8,3.1c0.2,0.3,0.4,0.6,0.8,0.9
			c2.8-2.1,6.3-2.9,6.3-2.9C255.5,207.8,255.8,207.5,255.7,207.2z"/>
	</g>
</g>
</svg>
