<?xml version="1.0" encoding="utf-8"?>
<!-- Generator: Adobe Illustrator 19.0.0, SVG Export Plug-In . SVG Version: 6.00 Build 0)  -->
<svg version="1.1" id="e613b765-a21b-4502-9325-e6e5b4d66d88"
	 xmlns="http://www.w3.org/2000/svg" xmlns:xlink="http://www.w3.org/1999/xlink" x="0px" y="0px" viewBox="159 -0.1 929.5 793.1"
	 style="enable-background:new 159 -0.1 929.5 793.1;" xml:space="preserve">
<style type="text/css">
	.st0{fill:#57B894;}
	.st1{fill:#DFE1E6;}
	.st2{fill:#0747A6;}
	.st3{opacity:0.3;fill:#35ADE1;enable-background:new    ;}
	.st4{fill:#EBECF0;}
	.st5{fill:#F4F5F7;}
	.st6{fill:#7A869A;}
	.st7{fill:#DEEBFF;}
	.st8{fill:#FBBEBE;}
	.st9{opacity:0.1;enable-background:new    ;}
	.st10{fill:#2F2E41;}
	.st11{fill:#344563;}
	.st12{fill:#B3D4FF;}
</style>
<title>folder</title>
<path class="st0" d="M996.2,441c-0.2,11.8-0.7,25.1-1.9,39.1l34.1-42.5l0.2,0.7c-2.8-9.6-6.9-18.7-12.3-27.2l0.3,0.6L996.2,441z"/>
<path class="st0" d="M996.3,438.9l19.8-28.4c-5.7-8.6-12.5-15.2-20.3-19.3c-0.4-0.2-0.8-0.4-1.2-0.6
	C994.9,393.9,996.5,412.7,996.3,438.9z"/>
<path class="st0" d="M1032.7,521.4c0.8-5,1.5-9.9,2-14.8L983.2,547l-0.1-0.4c-0.8,2.9-1.6,5.8-2.4,8.6l51.8-34.6L1032.7,521.4z"/>
<path class="st0" d="M989.1,519.8l46-42.6l0.2,0.7c-0.6-13.2-2.7-26.3-6.4-38.9l-34.7,43.3C992.9,495.4,991.3,507.9,989.1,519.8z"/>
<path class="st0" d="M993.3,481.5l-61.5-61.2l0.3-0.7c-5,8-9.2,16.4-12.5,25.2l70,66.4C991.2,500.9,992.4,490.9,993.3,481.5z"/>
<path class="st0" d="M988,520.6c0.5-2.5,0.9-5.1,1.3-7.6L919,446.3l0.3-0.8c-1.2,3.1-2.3,6.3-3.3,9.6l0.3-0.8L988,520.6z"/>
<path class="st0" d="M983.6,544.9l51-40l0.1,0.8c0.8-8.9,1-17.9,0.6-26.9L988.7,522C987.2,529.9,985.5,537.6,983.6,544.9z"/>
<path class="st0" d="M911.1,517.8l57.6,66.8c3.9-8.8,7.3-17.8,10.1-26.9l-69.4-64.9c-0.2,8.6,0.3,17.2,1.3,25.8L911.1,517.8z"/>
<path class="st0" d="M993.6,390.7l0.5-0.2c-12.1-5.6-24.8-4.2-36.6,2.9l37.9,45.6C995.6,410.5,993.6,390.9,993.6,390.7z"/>
<path class="st0" d="M979.3,560c-2.6,8.3-5.7,16.4-9.2,24.3l52.3-31l0.1,0.8c3.7-7.1,6.4-14.6,8.2-22.4c0.7-3.1,1.3-6.1,1.8-9.2
	l-52.4,35C979.8,558.2,979.6,559.1,979.3,560z"/>
<path class="st0" d="M995.3,441.1l-38.7-46.7l0.3-0.7c-8.9,5.5-17.2,14.1-24.5,25.4l61,60.7C994.6,465.9,995.2,452.8,995.3,441.1z"
	/>
<path class="st0" d="M979.4,556.1c3.4-11.1,6.1-22.4,8.3-33.9L915.7,456c-1.4,4.5-2.6,9.1-3.7,13.9c-1.5,6.9-2.3,13.9-2.5,21
	L979.4,556.1L979.4,556.1z"/>
<path class="st0" d="M1053.4,627.8c-7.7,9-16.5,18.9-26.4,28.9l53.4-11l-0.2,0.7c4-9.2,6.6-18.8,7.9-28.8l-0.2,0.7L1053.4,627.8z"/>
<path class="st0" d="M1084.8,589.2c-0.2-0.4-0.4-0.8-0.6-1.2c-1.8,2.7-12.5,18.2-29.5,38.3l33.4-9.3
	C1089.2,606.8,1088.2,597.3,1084.8,589.2z"/>
<path class="st0" d="M976,700.8c-2.5,1.7-4.9,3.4-7.3,5.1l62,6.4l-0.4,0.7c3.8-3.3,7.5-6.7,11-10.2l-65.3-1.7L976,700.8z"/>
<path class="st0" d="M997.7,683.9l62.6-3.5l-0.3,0.7c8-10.5,14.6-22,19.9-34.1l-54.4,11.2C1016.2,667.6,1006.9,676.1,997.7,683.9z"
	/>
<path class="st0" d="M977.4,699.8l64.8,1.7l-0.4,0.7c6.3-6.4,12.2-13.2,17.6-20.3l-63.5,3.5C989.8,690.5,983.6,695.4,977.4,699.8z"
	/>
<path class="st0" d="M900.3,736.3c0.4-0.5,0.9-1,1.3-1.5c13-2.9,25.7-7.3,37.6-13.2l-0.9-46.5c0.5-1.2,0.9-2.4,1.3-3.7l1,49.5
	c8.6-4.3,16.9-9,25-14.3l-11-86c0.4-0.3,0.9-0.5,1.4-0.8l11,85.9l0.1,0c9.7-6.4,19-13.4,28-20.8l-11.4-84.6c0.4-0.4,0.9-0.7,1.3-1.1
	l11.4,84.6c2-1.7,3.9-3.3,5.8-5l-10.4-85.7c0.4-0.4,0.9-0.8,1.3-1.2l10.4,85.8c7.9-6.9,15.2-13.9,21.8-20.5l-8.4-86.4l0.7-0.4
	c-2.4,0.8-4.8,1.6-7.2,2.6c4.3-5.6,8.2-11.5,11.5-17.7l-52.8,31.3c-3.3,7.3-7.2,14.5-11.4,21.3c-0.9,1-1.9,2-2.8,3l0.1,1.1
	c-0.4,0.6-0.8,1.2-1.2,1.8l-0.2-1.4c-0.5,0.6-1,1.2-1.6,1.8c6.2-8.9,11.6-18.3,16.1-28.2l-57.2-66.3c0.7,6.2,1.7,12.4,2.8,18.5
	c-5.4-7.7-11.8-14.7-19.1-20.7l0.5,0.5l-10.4,34.2c3.5,11.3,7.1,24.1,10.3,37.7l19-50.3c0.1,0.8,0.3,1.5,0.4,2.3l-19,50.1
	c2.9,12.8,5.2,25.2,6.8,37.2l23.8-42.6c0.2,0.6,0.4,1.2,0.6,1.7l-24,43.1c1,8,1.8,15.8,2.2,23.4l29.5-44c0.2,0.5,0.4,1.1,0.6,1.6
	L905.1,657l-0.2-0.3c0.2,3,0.3,6,0.4,8.9l33.7-42.7c0.2,0.6,0.4,1.1,0.6,1.5l-34.3,43.4c0,0.9,0,1.8,0,2.7
	c0.1,8.7-0.3,17.3-1.2,25.9l3.3-3.7c-0.6,1.4-1.1,2.8-1.7,4.2l-1.9,2.1c-0.1,1.3-0.3,2.6-0.5,3.8c-0.6,1.6-1.2,3.2-1.8,4.8
	c0.5-2.9,0.9-5.9,1.2-8.8l-74.9-45.4c21.6,47,59.6,90.7,62.1,93.5c1.6-3.5,3.1-7.1,4.4-10.8c0.4-0.1,0.9-0.1,1.3-0.2
	c-0.2,0.4-0.3,0.9-0.5,1.3c-0.2,0-0.5,0.1-0.7,0.1c0.2,0,0.4,0.1,0.6,0.1c-0.9,2.6-1.9,5.1-3,7.6c1.5-1.5,3.7-3.9,6.5-6.9
	c17.2,3.3,63.4,9.9,101.7-6l-60.6-9.6C927.1,728.8,913.9,733.4,900.3,736.3z M938,658.1l1.4-1.5l0,2.2l-1.4,1.5L938,658.1z"/>
<path class="st0" d="M1083.5,587.4l0.5,0.1c-5.8-12-16.4-19-30-21.1l0,59.3C1072.3,603.9,1083.3,587.6,1083.5,587.4z"/>
<path class="st0" d="M964.5,708.6c-7.3,4.7-14.8,9-22.5,12.9l60.1,9.5l-0.4,0.7c7.3-3.1,14.3-7.2,20.6-12c2.5-1.9,4.9-3.9,7.3-5.9
	l-62.7-6.5C966,707.6,965.2,708.2,964.5,708.6z"/>
<path class="st0" d="M1026.6,655.8c9.7-9.9,18.5-19.6,26.1-28.5l0-60.7l0.7-0.4c-10.3-1.5-22.3-0.1-35,3.9L1026.6,655.8z"/>
<path class="st0" d="M894.1,517.1c-8.1-6.4-16.6-10.6-25.2-12c-0.5-0.1-0.9-0.1-1.3-0.2c1.3,3,8.7,20.3,16.5,45.4L894.1,517.1z"/>
<path class="st0" d="M894.4,591.7L817,552.5l0-0.8c-2.3,9.1-3.6,18.4-4.1,27.8l87.1,41.5C898.5,610.7,896.5,600.8,894.4,591.7z"/>
<path class="st0" d="M900.3,622.8l-87.5-41.7l0-0.8c-0.1,3.3-0.2,6.7-0.1,10.1l0-0.8l88.7,40.7C901.1,627.9,900.7,625.3,900.3,622.8
	z"/>
<path class="st0" d="M904.3,668.6l-86-40.3c2.5,8.2,5.6,16.3,9.2,24.2l0.1-0.9l75.5,45.7C904,687.8,904.4,678.2,904.3,668.6z"/>
<path class="st0" d="M866.6,505.2l0.4-0.4c-13.2-1.6-24.8,3.7-33.9,14l50.1,31.7C874.7,523.5,866.7,505.4,866.6,505.2z"/>
<path class="st0" d="M883.8,552.6l-51.3-32.4l0.1-0.8c-6.7,7.9-12,18.7-15.4,31.7l76.8,38.8C890.9,576.4,887.3,563.7,883.8,552.6z"
	/>
<path class="st0" d="M904.2,666.9c-0.2-11.6-1.1-23.2-2.6-34.8l-88.9-40.8c0.1,4.7,0.4,9.5,0.8,14.4c0.7,7,2.1,14,4.1,20.7
	L904.2,666.9L904.2,666.9z"/>
<path class="st1" d="M831.8,460.9l-258.1-32.5c-11.7-97.3,6-192.3,36.2-286.8L868,174.1C829,266.8,817.6,362.5,831.8,460.9z"/>
<rect x="644.2" y="185.8" transform="matrix(-0.9921 -0.1251 0.1251 -0.9921 1417.464 477.6381)" class="st2" width="159" height="17.1"/>
<rect x="608.1" y="226.5" transform="matrix(-0.9921 -0.1251 0.1251 -0.9921 1397.1699 549.1943)" class="st3" width="215.5" height="8.5"/>
<rect x="604.6" y="253.8" transform="matrix(-0.9921 -0.1251 0.1251 -0.9921 1386.8719 603.2979)" class="st3" width="215.5" height="8.5"/>
<rect x="601.2" y="281.2" transform="matrix(-0.9921 -0.1251 0.1251 -0.9921 1376.5741 657.4016)" class="st3" width="215.5" height="8.5"/>
<rect x="597.7" y="308.6" transform="matrix(-0.9921 -0.1251 0.1251 -0.9921 1366.276 711.5051)" class="st3" width="215.5" height="8.5"/>
<rect x="594.3" y="336" transform="matrix(-0.9921 -0.1251 0.1251 -0.9921 1355.9781 765.6088)" class="st3" width="215.5" height="8.5"/>
<rect x="590.8" y="363.3" transform="matrix(-0.9921 -0.1251 0.1251 -0.9921 1345.6802 819.7124)" class="st3" width="215.5" height="8.5"/>
<rect x="587.4" y="390.7" transform="matrix(-0.9921 -0.1251 0.1251 -0.9921 1335.3822 873.816)" class="st3" width="215.5" height="8.5"/>
<path class="st4" d="M709.6,365l-241.5-96.8c13.3-97.1,54.4-184.5,107.5-268.3l241.5,96.8C756,176.5,720.7,266.2,709.6,365z"/>
<rect x="593" y="71.2" transform="matrix(-0.9282 -0.372 0.372 -0.9282 1266.9768 404.0204)" class="st2" width="159" height="17.1"/>
<rect x="547.9" y="108.7" transform="matrix(-0.9282 -0.372 0.372 -0.9282 1222.1073 461.8247)" class="st3" width="215.5" height="8.5"/>
<rect x="537.6" y="134.4" transform="matrix(-0.9282 -0.372 0.372 -0.9282 1192.785 507.3892)" class="st3" width="215.5" height="8.5"/>
<rect x="527.3" y="160" transform="matrix(-0.9282 -0.372 0.372 -0.9282 1163.4629 552.9535)" class="st3" width="215.5" height="8.5"/>
<rect x="517.1" y="185.6" transform="matrix(-0.9282 -0.372 0.372 -0.9282 1134.1407 598.5179)" class="st3" width="215.5" height="8.5"/>
<rect x="506.8" y="211.2" transform="matrix(-0.9282 -0.372 0.372 -0.9282 1104.8187 644.0823)" class="st3" width="215.5" height="8.5"/>
<rect x="496.5" y="236.8" transform="matrix(-0.9282 -0.372 0.372 -0.9282 1075.4966 689.6468)" class="st3" width="215.5" height="8.5"/>
<rect x="486.3" y="262.4" transform="matrix(-0.9282 -0.372 0.372 -0.9282 1046.1743 735.2111)" class="st3" width="215.5" height="8.5"/>
<path class="st5" d="M649.9,388.3H389.7c-23.8-95.1-18.1-191.5,0-289.1h260.2C622.8,196.1,623.4,292.4,649.9,388.3z"/>
<rect x="429.8" y="128.8" class="st2" width="159" height="17.1"/>
<rect x="398.3" y="170.2" class="st3" width="215.5" height="8.5"/>
<rect x="398.3" y="197.8" class="st3" width="215.5" height="8.5"/>
<rect x="398.3" y="225.4" class="st3" width="215.5" height="8.5"/>
<rect x="398.3" y="253" class="st3" width="215.5" height="8.5"/>
<rect x="398.3" y="280.6" class="st3" width="215.5" height="8.5"/>
<rect x="398.3" y="308.2" class="st3" width="215.5" height="8.5"/>
<rect x="398.3" y="335.8" class="st3" width="215.5" height="8.5"/>
<path class="st6" d="M474.5,330.6L384.9,261c-1.8-3.2-5.2-5.1-8.9-5.1h-48.4c-5.7,0-10.2,4.6-10.2,10.2l0,0V693
	c0,18.3,14.9,33.2,33.2,33.2h496.6c18.3,0,33.2-14.9,33.2-33.2V360.8c0-16.7-13.5-30.2-30.2-30.2H474.5z"/>
<rect x="773.4" y="429.6" class="st7" width="90.1" height="31.5"/>
<path class="st4" d="M159,791c0,0,411.9-235.6,909.4,0"/>
<path class="st8" d="M247.2,250.4c0,0,4.4,23.4,1.3,25.2c-2.5,1.6-4.9,3.3-7.1,5.3l8,11.1l19,4l18.1-16.8v-16.8
	c0,0-5.3-8.4-4.4-13.7C283,243.3,247.2,250.4,247.2,250.4z"/>
<path class="st9" d="M247.2,250.4c0,0,4.4,23.4,1.3,25.2c-2.5,1.6-4.9,3.3-7.1,5.3l8,11.1l19,4l18.1-16.8v-16.8
	c0,0-5.3-8.4-4.4-13.7C283,243.3,247.2,250.4,247.2,250.4z"/>
<path class="st2" d="M216.7,290.6l-2.7,1.3c0,0-5.7,2.2-8.4,21.2c-2.7,19-8.8,64.5-7.1,65.9s0.9,10.2,0.9,10.2l13.3-69.4
	L216.7,290.6z"/>
<path class="st10" d="M248.2,182.7c-0.4,0.8-0.5,1.8-0.9,2.7c-1.7,3.9-6.6,3-10.2,4.5c-3,1.3-5.2,4.7-5.5,8.4
	c-0.1,1.6,0.1,3.2,0,4.7c-0.3,2.9-1.8,5.5-2.3,8.3c-1.3,6.9,1.7,17.9,5.1,14.1c1.1-1.2,2.4-2,3.6-3c3-2.8,4.6-7.1,7-10.6
	c0.3-0.5,0.7-0.9,1.2-1.2c1.8-0.9,3.4,1.5,4.8,3.1c2.8,3.1,7.6,3.3,10.6,0.5c0.2-0.2,0.5-0.4,0.7-0.7c0.4-0.6,1-1.2,1.6-1.6
	c0.7-0.3,1.5-0.4,2.2-0.2c3.5,0.6,6.6,2.5,8.8,5.3c1.2,1.4,2.2,3.1,3.6,4.3c1.4,1.1,3.5,1.5,4.8,0.2c2.6,1.8,3.5,5.7,3.5,9.2
	s-0.7,7-0.5,10.5c0.2,3.5,1.6,7.3,4.3,8.6c0.4-3.2,2.1-6.1,4.6-8.1c1.9-1.4,4.2-2.1,5.8-4c3.2-3.7,2.2-9.8,2.3-15.1
	c0.2-6.5,2.4-12.7,2.8-19.2c0.2-3.2-0.1-6.7-1.8-9.3c-1.3-1.7-2.9-3.1-4.8-4.2l-15.2-9.7c-0.7-0.5-1.4-0.9-2.2-1.1
	c-2.2-0.4-4.2,1.7-6.3,2.6c-1.8,0.6-3.6,0.9-5.5,0.7c-5.9-0.2-7.5,1-11.5-2.9c-0.6-0.6-1.5-0.9-2.4-0.8
	C254.1,179,249.5,180,248.2,182.7z"/>
<polygon class="st8" points="256.5,716.8 265.8,737.2 247.7,743.4 238.4,738.5 240.6,716.8 "/>
<path class="st11" d="M248.1,734.1c0,0-14.6-8.8-17.2-5.7S207,754,207,754s-32.7,17.7-7.5,20.3s66.3-15.5,66.3-15.5
	s2.2-23.9,0.4-24.3s-9.3,4-12.8,2.7C251.5,736.5,249.7,735.5,248.1,734.1z"/>
<polygon class="st8" points="280.4,738.5 280.4,756.6 256.5,751.3 261.8,732.8 "/>
<path class="st11" d="M256.1,744.7c0,0,24.3-4,26.5,8c2.2,11.9,8,29.6,2.2,34c-5.7,4.4-35.4,10.2-35.8,2.7s3.1-22.1,3.1-22.1
	s2.2-11.5,0.9-14.6S256.1,744.7,256.1,744.7z"/>
<path class="st11" d="M207.5,446.2c0,0-20,126.6-3.6,188.5s27.9,98.6,27.9,98.6s28.3-8,28.3-13.3s-11.1-84-13.7-91.5
	s-7.1-10.2-3.1-16.4s10.6-46,10.6-46s14.6,65.9,15.5,67.6s-9.3,103-9.3,103s29.2,21.2,30.9,5.3c0.4-4,19.9-145,19.9-146.8
	s8-137.1-4.9-143.7C293.2,444.9,207.5,446.2,207.5,446.2z"/>
<circle class="st8" cx="264.5" cy="229.2" r="30.1"/>
<path class="st12" d="M257.8,288.9v-3.1l-8.8-14.6c0,0-8.8,0.9-10.2,4.9s-16.4,35.8-16.4,35.8l-15.9,142.8c0,0,43.8,10.6,50.4,3.1
	c6.6-7.5,31.8-171.1,31.8-171.1l3.5-19.9c0,0-6.1-8.8-7.5-7.5c-1.4,1.3-24.4,27-24.4,27l-0.4,4L257.8,288.9z"/>
<path class="st2" d="M248.8,268.3c0,0-8.2-2-10.8,2.9c-2.7,4.9-2.7,6.6-5.3,8.4c-2.7,1.8-18.1,9.7-19,12.8s-19.9,100.8-19.9,100.8
	s-9.3,29.2-4.9,49.1s1.3,23.9,10.6,25.6s10.6,1.8,10.6-0.9s11.9-92.4,20.3-98.6c8.4-6.2,6.2-73.8,6.2-73.8s11.9-14.6,11.9-16.8
	C248.6,275.6,250.5,268.2,248.8,268.3z"/>
<path class="st2" d="M273.8,284.5c1.2,0.2,18.1-21.7,19.5-20.8c1.3,0.9,8,12.4,8.8,12.4c0.9,0,38.5,9.3,41.6,26.5
	c3.1,17.2-21.7,72.1-21.7,72.1s-10.6,31.4-8.4,45.1c1.5,10.4,1.2,21.1-0.9,31.4c-0.9,3.5-4,7.5-3.1,9.3c0.9,1.8-19.5-2.2-27.9,2.7
	c-8.4,4.9-46,8.4-43.8,3.1s3.5-26.1,9.7-48.2s22.1-74.3,19.5-77.8C264.5,336.6,271.1,284,273.8,284.5z"/>
<path class="st2" d="M338.3,297.3l5.7,5.3c0,0,6.6,11.5,5.7,16.8c-0.9,5.3,18.6,85.3,10.6,88c-8,2.7-27,15.9-29.2,19.5
	c-2.2,3.5-7.5,9.7-11.1,11.5c-3.5,1.8-7.1,4.9-9.3,3.1c-2.2-1.8-7.1-38-3.5-39.3c3.5-1.3,7.1-5.3,10.6-5.3c3.5,0,5.7-3.5,5.7-6.6
	c0-3.1-2.7-21.7-2.7-21.7l-5.7-43.8L338.3,297.3z"/>
<path class="st10" d="M253.5,187.1c-0.4,0.6-0.5,1.4-0.8,2c-1.5,3-5.9,2.3-9,3.4c-2.7,1-4.6,3.5-4.8,6.3c-0.1,1.2,0.1,2.4,0,3.6
	c-0.2,2.2-1.6,4.1-2,6.3c-1.1,5.2,1.5,13.5,4.5,10.7c1-0.9,2.1-1.5,3.2-2.3c2.7-2.1,4-5.4,6.2-8c0.3-0.4,0.7-0.7,1.1-0.9
	c1.6-0.7,3,1.1,4.2,2.3c2.9,2.5,7.2,2.4,10-0.2c0.4-0.5,0.9-0.9,1.4-1.2c0.6-0.2,1.3-0.3,2-0.2c3,0.4,5.7,1.8,7.8,4
	c0.9,1.2,2,2.3,3.2,3.2c1.3,0.8,3.1,1.1,4.2,0.1c2.3,1.4,3.1,4.3,3.1,6.9s-0.6,5.3-0.5,7.9c0.2,2.6,1.4,5.5,3.8,6.5
	c0.5-2.5,1.9-4.7,4.1-6.1c1.7-1.1,3.7-1.6,5.1-3c2.8-2.8,1.9-7.4,2.1-11.4c0.1-4.9,2.1-9.6,2.5-14.5c0.2-2.5-0.1-5.1-1.6-7
	c-1.2-1.3-2.6-2.4-4.3-3.1l-13.4-7.4c-0.6-0.4-1.3-0.7-2-0.8c-2-0.3-3.7,1.3-5.6,2c-1.6,0.5-3.2,0.6-4.9,0.5
	c-5.2-0.1-6.7,0.7-10.2-2.2c-0.6-0.5-1.4-0.7-2.1-0.6C258.7,184.3,254.6,185.1,253.5,187.1z"/>
</svg>
