<svg width="20" height="20" xml:space="preserve" xmlns:xlink="http://www.w3.org/1999/xlink" version="1.1" viewBox="0 0 1000 1000" xmlns="http://www.w3.org/2000/svg">
  <g fill="#808080" transform="translate(0,511) scale(0.1,-0.1)">
    <path d="M4119.9,4951.4c-674.5-121.6-1498-478.4-2043-886.2C1073,3312.3,367.1,2175.1,155.4,959.5c-74.5-447-74.5-1239.2,3.9-1690.1c258.8-1498,1231.3-2819.4,2592-3521.4c713.7-368.6,1419.5-537.2,2250.9-537.2c827.4,0,1525.4,168.6,2239.1,533.3l345.1,180.4l972.5-356.8c533.3-196.1,1015.6-356.9,1078.4-356.9c137.2,0,262.7,125.5,262.7,262.7c0,62.7-160.8,545.1-356.8,1078.4l-356.9,972.5l180.4,345.1C9731.4-1416.9,9900-718.9,9900,108.5c0,831.3-168.6,1537.2-537.2,2250.9c-701.9,1356.8-2023.4,2333.2-3517.5,2596C5414,5029.8,4543.4,5025.9,4119.9,4951.4z M5708.1,4363.2c929.3-160.8,1697.9-564.7,2368.5-1250.9c1172.5-1196,1541.1-2909.7,964.6-4490c-66.6-176.5-184.3-439.2-262.7-584.3c-286.3-509.8-290.2-376.5,23.5-1219.6c156.9-415.7,270.6-760.7,262.8-772.5c-11.8-7.8-356.9,105.9-772.5,262.7c-843.1,313.7-709.8,309.8-1219.5,23.6c-1643.1-913.7-3725.3-623.5-5074.3,701.9C1312.2-2291.4,908.3-1522.8,747.5-597.3c-149,874.5,0,1862.7,400,2650.9C1990.6,3724,3876.8,4676.9,5708.1,4363.2z"></path>
  </g>
</svg>