<svg xmlns:xlink="http://www.w3.org/1999/xlink" height="22px" version="1.1" viewBox="0 0 22 22" width="22px" xmlns="http://www.w3.org/2000/svg">
  <g fill="#808080" fill-rule="evenodd" stroke="none" stroke-width="1">
    <path d="M11,21.5 C16.7989899,21.5 21.5,16.7989899 21.5,11 C21.5,5.20101013 16.7989899,0.5 11,0.5 C5.20101013,0.5 0.5,5.20101013 0.5,11 C0.5,16.7989899 5.20101013,21.5 11,21.5 Z M11,20.5 C5.75329488,20.5 1.5,16.2467051 1.5,11 C1.5,5.75329488 5.75329488,1.5 11,1.5 C16.2467051,1.5 20.5,5.75329488 20.5,11 C20.5,16.2467051 16.2467051,20.5 11,20.5 Z"></path>
    <path d="M14.2957512,5.112 L14.2957512,5.54780961 C13.8673065,5.50149154 14.2957512,5.52416615 14.2957512,5.112 Z M14.2957512,6.9 L13.6295072,6.9 C12.2913635,6.9 11.9570256,7.58888378 11.9570256,9.0416 L11.9570256,10.6 C11.9570256,10.8761424 12.1808832,11.1 12.4570256,11.1 L14.4411089,11.1 L14.1956401,13.3 L12.4570256,13.3 C12.1816009,13.3 11.9580417,13.5227387 11.957029,13.7981615 L11.9309726,20.884392 C11.9299572,21.1605325 12.1529902,21.3852117 12.4291307,21.3862271 C12.7052712,21.3872425 12.9299505,21.1642095 12.9309659,20.888069 L12.9551905,14.3 L14.6429544,14.3 C14.8976412,14.3 15.111629,14.1085604 15.1398708,13.8554443 L15.4969164,10.6554443 C15.5299721,10.3591851 15.2980976,10.1 15,10.1 L12.9570256,10.1 L12.9570256,9.0416 C12.9570256,8.07208605 13.0405446,7.9 13.6295072,7.9 L14.7957512,7.9 C15.0718936,7.9 15.2957512,7.67614237 15.2957512,7.4 L15.2957512,5.112 C15.2957512,4.52228846 14.9410925,4.5 12.7805496,4.5 C10.3390256,4.5 8.8387256,6.10053772 8.8387256,8.76 L8.8387256,10.1 L7,10.1 C6.72385763,10.1 6.5,10.3238576 6.5,10.6 L6.5,13.8 C6.5,14.0761424 6.72385763,14.3 7,14.3 L8.83764876,14.3 L8.82373163,20.7690049 C8.82313755,21.0451466 9.04651306,21.2694853 9.32265479,21.2700794 C9.59879653,21.2706735 9.82313523,21.047298 9.82372931,20.7711562 L9.83872444,13.8010757 C9.83931943,13.5245138 9.61528815,13.3 9.3387256,13.3 L7.5,13.3 L7.5,11.1 L9.3387256,11.1 C9.61486797,11.1 9.8387256,10.8761424 9.8387256,10.6 L9.8387256,8.76 C9.8387256,6.638884 10.9062841,5.5 12.7805496,5.5 C13.2348715,5.5 13.7237112,5.51615299 14.1368329,5.54211555 C14.1926186,5.54562139 14.2458123,5.54924204 14.2957512,5.55291482 L14.2957512,6.9 Z"></path>
  </g>
</svg>