<svg height="22px" viewBox="-17 0 512 512.00853" width="22px" xmlns="http://www.w3.org/2000/svg">
  <g fill="#808080" fill-rule="evenodd" stroke="none" stroke-width="1">
    <path d="m443.730469 512.007812h-273.066407c-18.828124 0-34.136718-15.308593-34.136718-34.132812v-221.867188c0-18.824218 15.308594-34.132812 34.136718-34.132812h273.066407c18.824219 0 34.132812 15.308594 34.132812 34.132812v221.867188c0 18.824219-15.316406 34.132812-34.132812 34.132812zm-273.066407-273.066406c-9.414062 0-17.066406 7.65625-17.066406 17.066406v221.867188c0 9.414062 7.652344 17.066406 17.066406 17.066406h273.066407c9.410156 0 17.066406-7.652344 17.066406-17.066406v-221.867188c0-9.410156-7.65625-17.066406-17.066406-17.066406zm0 0"></path>
    <path d="m230.394531 238.941406h-34.132812c-4.710938 0-8.53125-3.824218-8.53125-8.53125v-107.90625c0-32.152344-20.550781-60.425781-49.972657-68.734375-20.328124-5.753906-41.796874-1.632812-58.886718 11.289063-17.324219 13.105468-27.667969 33.449218-27.667969 54.40625v42.667968c0 14.113282-11.484375 25.601563-25.597656 25.601563-14.117188 0-25.60156275-11.488281-25.60156275-25.601563v-42.667968c0-65.875 53.58984375-119.464844 119.46874975-119.464844 65.875 0 119.464844 53.589844 119.464844 119.464844v110.933594c-.007812 4.71875-3.832031 8.542968-8.542969 8.542968zm-25.597656-17.066406h17.066406v-102.398438c0-56.464843-45.9375-102.402343-102.402343-102.402343-56.464844 0-102.398438 45.9375-102.398438 102.402343v42.664063c0 4.703125 3.832031 8.535156 8.535156 8.535156 4.699219 0 8.53125-3.832031 8.53125-8.535156v-42.664063c0-26.277343 12.878906-51.703124 34.441406-68.019531 21.382813-16.179687 48.296876-21.335937 73.828126-14.105469 36.746093 10.382813 62.398437 45.394532 62.398437 85.152344zm0 0"></path>
    <path d="m332.796875 443.742188h-51.199219c-2.441406 0-4.753906-1.042969-6.375-2.859376-1.621094-1.816406-2.382812-4.242187-2.101562-6.664062l7.9375-67.867188c-10.308594-8.027343-16.53125-20.425781-16.53125-33.542968 0-23.527344 19.140625-42.667969 42.667968-42.667969 23.527344 0 42.667969 19.140625 42.667969 42.667969 0 13.117187-6.214843 25.515625-16.53125 33.542968l7.9375 67.867188c.28125 2.421875-.476562 4.847656-2.097656 6.664062-1.625 1.816407-3.945313 2.859376-6.375 2.859376zm-41.617187-17.066407h32.023437l-7.421875-63.472656c-.394531-3.378906 1.246094-6.65625 4.179688-8.363281 8.03125-4.664063 12.828124-12.902344 12.828124-22.023438 0-14.113281-11.488281-25.597656-25.601562-25.597656s-25.601562 11.484375-25.601562 25.597656c0 9.113282 4.796874 17.347656 12.828124 22.023438 2.933594 1.707031 4.582032 4.992187 4.179688 8.363281zm0 0"></path>
  </g>
</svg>