<svg xmlns:xlink="http://www.w3.org/1999/xlink" height="17px" version="1.1" viewBox="0 0 18 17" width="18px" xmlns="http://www.w3.org/2000/svg">
  <g fill="#808080" fill-rule="evenodd" stroke="none" stroke-width="1" transform="translate(-610,-490)">
    <path d="M616.795,503.192875 C615.685,502.155875 615.048,500.690875 615.048,499.171875 C615.048,496.138875 617.516,493.671875 620.548,493.671875 L623.46,493.671875 L620.814,491.025875 L621.521,490.318875 L625.375,494.172875 L621.521,498.026875 L620.814,497.319875 L623.46,494.673875 L620.548,494.673875 C618.067,494.673875 616.048,496.692875 616.048,499.173875 C616.048,500.434875 616.556,501.602875 617.477,502.463875 L616.795,503.192875 L616.795,503.192875 Z M626.048,498.826875 L626.048,505.296875 C626.048,505.571875 625.823,505.796875 625.548,505.796875 L611.548,505.796875 C611.273,505.796875 611.048,505.571875 611.048,505.296875 L611.048,498.821875 L610.048,498.821875 L610.048,505.296875 C610.048,506.123875 610.721,506.796875 611.548,506.796875 L625.548,506.796875 C626.375,506.796875 627.048,506.123875 627.048,505.296875 L627.048,498.826875 L626.048,498.826875 L626.048,498.826875 Z"></path>
  </g>
</svg>