<svg
  xmlns="http://www.w3.org/2000/svg"
  viewBox="0 0 128 128"
>
  <path
    fill="#f7f7fb"
    d="M64,9c30.4,0,55,24.6,55,55c0,30.4-24.6,55-55,55C33.6,119,9,94.4,9,64C9,33.6,33.6,9,64,9"
  ></path>
  <path
    fill="#dfe0e4"
    d="M64,9L64,9c-2,0-4,0.1-5.9,0.3c-0.3,0-0.6,0.1-0.8,0.1c27.1,3.5,48,26.6,48,54.6s-20.9,51.1-48,54.6 c2.2,0.3,4.5,0.4,6.8,0.4l0,0l0,0c30.4,0,55-24.6,55-55l0,0C119,33.6,94.4,9,64,9"
  ></path>
  <path
    fill="#464c55"
    d="M64,122C32,122,6,96,6,64S32,6,64,6s58,26,58,58S96,122,64,122z M64,12c-28.7,0-52,23.3-52,52 s23.3,52,52,52s52-23.3,52-52S92.7,12,64,12z"
  ></path>
  <path
    fill="#dedfe6"
    d="M64,23.5c-21.5,0-39,17.4-39,39c0,7.9,2.4,15.3,6.4,21.4c7-10.6,18.9-17.5,32.5-17.5 s25.6,7,32.5,17.5c4.1-6.1,6.4-13.5,6.4-21.4C103,40.9,85.5,23.5,64,23.5z M64,57.8c-8.1,0-14.6-6.5-14.6-14.6S55.9,28.6,64,28.6 s14.6,6.5,14.6,14.6C78.6,51.2,72.1,57.8,64,57.8z"
  ></path>
  <path
    fill="#464c55"
    d="M63.4 60.4L63.4 60.4c-9.1-.4-16.1-7.7-16.1-16.7 0-9.2 7.5-16.8 16.8-16.8s16.8 7.5 16.8 16.8c0 8.7-6.8 16-15.5 16.7-.4 0-.7 0-1-.1C64 60.4 63.7 60.4 63.4 60.4zM64 32.9c-5.9 0-10.8 4.8-10.8 10.8 0 5.8 4.5 10.5 10.3 10.7.2 0 .4 0 .7.1.2-.1.4-.1.7-.1 5.6-.4 9.9-5.1 9.9-10.7C74.8 37.7 69.9 32.9 64 32.9zM94.6 85.1c-1 0-1.9-.5-2.5-1.3C85.9 74.3 75.3 68.6 64 68.6s-21.9 5.7-28.1 15.2c-.9 1.4-2.8 1.8-4.2.9-1.4-.9-1.8-2.8-.9-4.2C38.3 69.3 50.6 62.6 64 62.6s25.7 6.7 33.1 17.8c.9 1.4.5 3.2-.9 4.2C95.8 84.9 95.2 85.1 94.6 85.1z"
  ></path>
</svg>
